<?xml version="1.0" standalone="no"?>
<!DOCTYPE svg PUBLIC "-//W3C//DTD SVG 20010904//EN"
 "http://www.w3.org/TR/2001/REC-SVG-20010904/DTD/svg10.dtd">
<svg version="1.0" xmlns="http://www.w3.org/2000/svg"
 width="300.000000pt" height="300.000000pt" viewBox="0 0 500.000000 500.000000"
 preserveAspectRatio="xMidYMid meet">

<g transform="translate(0.000000,500.000000) scale(0.100000,-0.100000)"
fill="#fff" stroke="none">
<path d="M2410 4264 c-417 -80 -738 -328 -869 -672 -77 -202 -95 -435 -48
-613 53 -202 127 -328 285 -481 54 -54 104 -98 109 -98 5 0 34 -18 64 -41 66
-50 260 -146 311 -155 37 -6 38 -5 55 37 35 90 166 336 205 387 40 51 42 52
59 35 20 -21 213 -383 230 -431 13 -37 12 -37 93 -16 114 29 339 167 442 272
236 238 338 516 305 829 -39 382 -279 704 -638 858 -144 62 -260 86 -428 90
-82 2 -161 1 -175 -1z m448 -180 c20 -14 22 -24 22 -99 0 -82 -1 -85 -25 -91
-46 -11 -53 -1 -57 88 -3 64 -1 87 10 101 18 21 22 21 50 1z m-282 -86 c31
-36 84 -115 84 -126 0 -5 -11 -17 -25 -26 -31 -21 -45 -13 -104 59 -45 55 -49
70 -24 97 22 24 45 23 69 -4z m608 -19 c14 -11 26 -24 26 -29 0 -19 -93 -120
-116 -126 -25 -7 -64 18 -64 40 0 13 108 136 119 136 5 0 20 -9 35 -21z m-863
-86 c80 -37 134 -89 166 -160 16 -34 29 -51 36 -46 7 3 37 25 67 49 30 23 84
52 119 65 58 21 71 22 145 12 152 -19 270 -101 336 -237 31 -63 32 -69 28
-168 -3 -82 -8 -113 -27 -151 -36 -74 -110 -149 -187 -188 -60 -30 -77 -34
-147 -34 -69 0 -81 3 -96 22 -18 21 -19 21 -47 4 -16 -10 -55 -27 -87 -39 -55
-21 -74 -22 -385 -22 -303 0 -333 2 -388 20 -80 28 -165 103 -206 184 -54 104
-42 230 29 324 33 44 100 92 128 92 19 0 24 7 29 43 14 95 103 199 209 245 77
33 189 27 278 -15z m1070 -142 c20 -16 22 -22 11 -45 -12 -27 -96 -85 -123
-86 -21 0 -52 34 -47 53 4 20 99 96 119 96 9 1 27 -7 40 -18z m95 -306 c18
-24 18 -34 -3 -57 -27 -30 -183 -19 -204 14 -13 19 -11 26 10 47 27 27 176 25
197 -4z m-145 -252 c68 -56 81 -85 51 -115 -27 -27 -49 -18 -117 45 -58 55
-65 75 -39 101 24 25 42 20 105 -31z m-225 -171 c28 -19 94 -121 88 -136 -8
-22 -41 -38 -62 -31 -19 6 -102 118 -102 138 0 30 48 48 76 29z m-238 -145 c2
-57 -1 -94 -9 -103 -16 -19 -55 -18 -63 2 -8 22 -8 179 1 188 4 4 21 6 38 4
l30 -3 3 -88z"/>
<path d="M2111 3830 c-100 -21 -171 -110 -187 -236 -6 -50 -8 -54 -33 -54 -74
-1 -150 -69 -172 -153 -24 -96 35 -212 133 -264 l53 -28 330 0 330 0 55 31
c173 97 183 306 20 391 -38 20 -57 23 -125 21 l-80 -3 -3 35 c-2 19 -12 63
-23 97 -40 123 -164 190 -298 163z"/>
<path d="M2744 3706 c-45 -14 -124 -56 -124 -65 0 -4 21 -16 48 -28 67 -31
123 -82 157 -144 26 -47 30 -64 29 -134 0 -66 -5 -90 -27 -138 -15 -32 -27
-60 -27 -62 0 -3 21 -5 48 -5 105 0 234 97 262 196 42 148 -17 292 -144 354
-73 36 -161 46 -222 26z"/>
<path d="M2487 2363 c-87 -162 -160 -320 -177 -383 -7 -24 -12 -74 -12 -110
-1 -158 128 -300 273 -300 102 0 215 86 246 188 24 78 22 172 -6 257 -12 39
-59 138 -104 220 -45 83 -94 176 -109 208 -16 31 -30 57 -32 57 -3 0 -38 -62
-79 -137z m280 -510 c-7 -41 -37 -73 -68 -73 -16 0 -19 8 -19 55 l0 55 46 0
47 0 -6 -37z"/>
<path d="M3350 2433 c-34 -26 -47 -44 -52 -71 -10 -54 -9 -435 1 -451 10 -16
87 -20 98 -6 4 6 6 134 3 286 l-5 276 -45 -34z"/>
<path d="M1740 2181 l0 -279 28 -7 c16 -3 41 -1 55 4 l27 11 0 245 0 245 -39
20 c-22 11 -42 24 -46 30 -21 34 -25 -12 -25 -269z"/>
<path d="M1992 2083 l3 -188 53 -3 52 -3 0 168 -1 168 -48 23 c-26 12 -51 22
-55 22 -3 0 -5 -84 -4 -187z"/>
<path d="M3084 2250 c-50 -22 -54 -38 -54 -216 0 -142 4 -150 75 -140 l45 7
-5 157 c-2 86 -4 169 -5 185 0 31 -2 32 -56 7z"/>
<path d="M1762 1773 c-21 -8 -43 -61 -36 -88 6 -26 48 -65 69 -65 7 0 24 11
39 25 63 59 7 160 -72 128z"/>
<path d="M2005 1755 c-16 -15 -25 -36 -25 -55 0 -35 38 -80 67 -80 65 1 94
107 40 145 -31 21 -54 19 -82 -10z"/>
<path d="M3045 1755 c-33 -32 -33 -78 1 -111 19 -20 31 -24 52 -20 61 15 82
87 37 131 -13 14 -33 25 -45 25 -11 0 -32 -11 -45 -25z"/>
<path d="M3306 1759 c-20 -16 -26 -29 -26 -58 0 -42 19 -65 62 -76 22 -6 33
-1 59 24 26 27 30 37 25 64 -12 62 -70 85 -120 46z"/>
<path d="M1773 1509 c-69 -25 -51 -159 20 -159 34 0 67 40 67 81 0 60 -40 96
-87 78z"/>
<path d="M2008 1490 c-28 -28 -30 -34 -23 -78 4 -26 11 -52 16 -59 15 -17 55
-24 83 -13 24 9 26 14 26 74 0 58 -3 67 -26 85 -35 27 -40 27 -76 -9z"/>
<path d="M3058 1504 c-30 -16 -40 -51 -30 -108 5 -30 13 -41 33 -48 58 -19
107 31 94 98 -10 53 -55 80 -97 58z"/>
<path d="M3302 1487 c-59 -63 13 -167 88 -127 23 12 43 70 34 96 -21 57 -83
73 -122 31z"/>
<path d="M2267 1342 c-19 -21 -24 -133 -7 -176 12 -32 50 -42 91 -26 l31 13
-4 89 c-2 75 -6 92 -22 104 -27 19 -70 18 -89 -4z"/>
<path d="M2785 1344 c-13 -13 -15 -34 -13 -107 3 -88 4 -92 31 -107 24 -13 30
-13 55 0 26 15 27 19 30 110 2 80 0 97 -15 107 -24 18 -68 16 -88 -3z"/>
<path d="M2550 1093 c-31 -11 -40 -37 -40 -113 0 -85 14 -110 62 -110 44 0 58
28 58 118 0 72 -2 83 -22 96 -23 17 -33 18 -58 9z"/>
</g>
</svg>
